<svg width="832" height="60" viewBox="0 0 832 60" fill="none" xmlns="http://www.w3.org/2000/svg">
<path d="M161.367 36.5217L167.985 26.4985H161.781L154.942 36.8545V26.4985H149.469V47.7826H154.942V37.7766H157.131L161.781 47.7826H167.985L162.753 36.5217H161.367Z" fill="#FF5F00"/>
<path d="M146.389 26.4985H140.916V44.4354H137.718V26.4985H132.245V44.4354H129.048V26.4985H123.575V44.4354H123.569L123.575 44.6024V47.7826H123.691H129.048H132.245H137.718H140.916H146.389H146.512L146.389 44.4354V26.4985Z" fill="#FF5F00"/>
<path d="M199.187 26.4985H196.45H195.59H192.964H191.046L186.182 47.7826H192.386L195.764 30.0913H196.276L199.654 47.7826H205.859L200.995 26.4985H199.187Z" fill="#FF5F00"/>
<path d="M231.385 26.4986H222.469L212.636 33.7824V26.4986H207.164V47.7827H212.636V44.6209C213.867 46.976 216.231 48.4593 218.946 48.4593C222.931 48.4593 226.165 45.0323 226.165 40.8108C226.165 37.1603 223.753 34.109 220.529 33.3429L225.687 30.0914H227.519V47.7815H232.992V26.4974H231.387L231.385 26.4986ZM221.804 40.3921C221.804 42.299 220.346 43.8437 218.557 43.8437C216.768 43.8437 215.31 42.299 215.31 40.3921C215.31 38.4852 216.768 36.9467 218.557 36.9467C220.346 36.9467 221.804 38.4914 221.804 40.3921Z" fill="#FF5F00"/>
<path d="M176.477 25.7901C170.709 25.7901 166.03 30.7557 166.03 36.8718C166.03 42.9879 170.71 47.9411 176.477 47.9411C182.245 47.9411 186.925 42.9817 186.925 36.8718C186.925 30.7618 182.238 25.7901 176.477 25.7901ZM176.477 41.992C173.808 41.992 171.644 39.6971 171.644 36.8669C171.644 34.0366 173.808 31.7417 176.477 31.7417C179.146 31.7417 181.311 34.0366 181.311 36.8669C181.311 39.6971 179.146 41.992 176.477 41.992Z" fill="#FF5F00"/>
<path d="M123.834 30.2736C118.908 38.3346 110.256 45.9462 106.554 45.9462C105.248 45.9462 104.631 45.0192 104.516 43.5359C110.235 41.8242 117.087 31.774 117.087 24.57C117.087 21.8196 116.079 19.9557 113.975 19.9557C108.662 19.9557 101.086 35.2403 101.086 43.3259C101.086 47.1533 102.383 49.8976 105.624 49.8976C110.795 49.8976 118.654 44.5133 126.974 32.4101L123.831 30.2748L123.834 30.2736ZM114.234 22.9394L114.536 23.5055C114.069 23.8566 113.731 24.1452 113.313 24.6007C113.313 29.737 109.088 37.1423 105.027 39.4016C106.567 33.3064 111.121 24.8758 114.234 22.9394Z" fill="#CB81FF"/>
<path d="M97.9705 27.4744C97.1925 29.1837 92.1049 38.157 88.7586 42.0678C90.1526 36.5485 92.7197 29.3224 93.9419 25.85L89.8029 25.6965L85.2099 40.1879C84.6626 41.9168 83.2416 47.2028 87.2211 47.1967C91.0337 47.1906 98.0011 35.2285 99.0282 31.7524L99.8896 31.8813C98.9055 34.5274 96.8452 38.5512 95.6525 39.8196L93.9431 47.8684H97.903L102.565 28.2947C103.314 25.1378 99.908 23.2125 97.9717 27.4757L97.9705 27.4744Z" fill="#CB81FF"/>
<path d="M83.15 25.6722L80.9608 33.5294C79.6466 34.7782 77.7888 35.7777 76.369 36.1853L79.2883 25.671H75.4143L69.3206 47.8662H73.1945L75.137 40.1981C77.5286 39.783 79.8663 38.7086 81.9265 36.2615L82.302 37.0424C81.1154 38.5625 79.9595 39.2084 79.0735 39.6455L76.9519 47.8662H80.8933L87.03 25.671H83.15V25.6722Z" fill="#CB81FF"/>
<path d="M69.8921 25.5553C68.9877 25.5553 67.9238 26.0538 66.3936 28.3426L60.9171 36.5264L62.9369 31.0562C63.964 28.2812 63.1148 26.8225 61.5724 26.8225C60.3612 26.8225 58.7071 27.8441 56.9916 30.2925L51.3347 38.3535H49.8732C52.4575 34.4845 54.6086 30.1537 56.2848 26.8347L52.1213 26.8654C51.1433 28.8104 42.4726 44.3468 37.8796 44.3468C37.1163 44.3468 36.5654 44.0509 36.1973 43.529C42.507 38.3216 48.6461 28.3143 48.6461 23.0872C48.6461 21.0379 47.6988 19.7216 45.4483 19.7216C39.5018 19.7216 32.2828 31.9292 32.2828 40.2678C32.2828 40.7798 32.3074 41.2882 32.3552 41.7854C31.3367 42.5062 30.463 42.92 29.8532 42.92C29.2813 42.92 28.9488 42.5013 28.9488 41.535C28.9488 36.0463 37.5949 14.621 42.588 3.28641H37.8403C25.5007 21.9551 15.274 38.6556 4.33447 56.967H9.14346C12.2308 51.6134 28.8641 21.8937 32.8804 16.8103H33.7173C32.5123 18.5637 31.8362 19.6467 31.1097 20.9335C28.3119 29.1112 25.1264 37.5529 25.1264 41.9402C25.1264 44.8748 26.5596 46.8627 29.0862 46.8627C30.4262 46.8627 31.8914 46.3605 33.3995 45.4961C34.1934 46.9278 35.4463 47.8659 37.2771 47.8659C40.9265 47.8659 44.1979 45.4691 47.0546 42.1182H48.1798L44.312 47.8659H48.8192C51.2918 44.4512 55.2087 38.0637 60.2201 31.8617L60.8165 32.4277L58.0617 36.1814L54.4945 46.2856H58.1169C61.7209 41.2894 64.8561 36.3238 68.5521 31.3705L69.1669 31.8752L66.012 36.6504L63.0179 47.8684H66.8673L71.8972 29.3777C72.5672 26.9232 71.448 25.5565 69.8921 25.5565V25.5553ZM45.6079 22.6329L46.1797 23.1867C45.5588 23.5072 44.9563 23.9062 44.3476 24.3925C43.5966 28.9737 39.6012 34.7914 35.8647 38.6728C36.9814 32.828 41.5511 24.3372 45.6079 22.6317V22.6329Z" fill="#CB81FF"/>
<path d="M85.2351 17.9006L84.0976 14.0671L57.3665 21.6051L58.7568 25.6227L85.2351 17.9006Z" fill="#CB81FF"/>
<path d="M28.2156 20.2069C28.0218 20.2069 27.8242 20.1529 27.6499 20.0387C27.1665 19.7256 27.0278 19.0797 27.3419 18.596C28.7151 16.4754 33.0295 9.87676 34.8604 7.08087C35.1757 6.59954 35.8224 6.46448 36.3046 6.78004C36.7869 7.09561 36.9207 7.7427 36.6053 8.22526C34.7745 11.0187 30.4637 17.6124 29.093 19.7305C28.893 20.0387 28.558 20.2069 28.2169 20.2069H28.2156Z" fill="#FCE300"/>
<path d="M34.2243 34.7789C34.12 34.7789 34.0133 34.7629 33.9077 34.7297C33.3592 34.5554 33.0549 33.9685 33.2292 33.4196C34.0746 30.7588 37.605 23.8519 38.5265 22.3171C38.8235 21.8235 39.464 21.6638 39.9573 21.9598C40.4506 22.2569 40.6114 22.8979 40.3144 23.3915C39.3241 25.0405 35.968 31.6858 35.2171 34.0507C35.0759 34.4952 34.6661 34.7789 34.2231 34.7789H34.2243Z" fill="#FCE300"/>
<path d="M46.5579 38.2996C46.4328 38.2996 46.3039 38.2763 46.18 38.2284C45.6425 38.0196 45.3775 37.4143 45.5861 36.8777C46.2058 35.2851 49.5889 29.7511 50.6466 28.1254C50.9608 27.6428 51.6074 27.5065 52.0897 27.8208C52.5719 28.1352 52.7081 28.7823 52.394 29.2648C51.2013 31.0968 48.0292 36.3485 47.5298 37.6341C47.3691 38.0467 46.9752 38.2996 46.5579 38.2996Z" fill="#FCE300"/>
<path d="M68.0347 19.9926C67.5831 19.9926 67.1671 19.6966 67.0333 19.2411C66.8726 18.6873 67.1892 18.1078 67.7426 17.9469L80.0553 14.3517C80.6087 14.1908 81.1879 14.5076 81.3486 15.0614C81.5094 15.6152 81.1928 16.1947 80.6394 16.3556L68.3267 19.9508C68.2298 19.9791 68.1304 19.9926 68.0347 19.9926Z" fill="#FCE300"/>
<path d="M71.6752 41.4992C71.5783 41.4992 71.4801 41.4857 71.3819 41.4575C70.8285 41.2954 70.5119 40.7158 70.6727 40.1633L73.3109 31.1224C73.4729 30.5686 74.0509 30.2506 74.6043 30.4127C75.1577 30.5748 75.4743 31.1543 75.3135 31.7069L72.6753 40.7478C72.5428 41.2033 72.1255 41.4992 71.674 41.4992H71.6752Z" fill="#FCE300"/>
<path d="M92.0636 39.2539C91.8157 39.2539 91.5679 39.1667 91.3691 38.9875C90.9396 38.6031 90.9028 37.9438 91.2868 37.514C93.7828 34.7218 96.3695 29.5242 97.2199 27.8162L97.3364 27.5829C97.5941 27.0672 98.2199 26.8584 98.7353 27.1163C99.2507 27.3742 99.4593 28.0016 99.2016 28.5161L99.0863 28.7469C98.2052 30.5175 95.524 35.9055 92.8404 38.9064C92.6342 39.1373 92.3495 39.2539 92.0624 39.2539H92.0636Z" fill="#FCE300"/>
<path d="M109.93 34.4192C109.698 34.4192 109.465 34.3431 109.272 34.1847C108.825 33.8213 108.758 33.1631 109.122 32.7162C110.151 31.4527 111.557 28.3854 111.898 27.2693C112.066 26.718 112.65 26.4073 113.2 26.5768C113.751 26.745 114.061 27.3282 113.892 27.8795C113.498 29.1664 112.003 32.4816 110.74 34.0337C110.533 34.2866 110.233 34.418 109.93 34.418V34.4192Z" fill="#FCE300"/>
<path d="M108.098 46.4116C107.67 46.4116 107.267 46.1452 107.115 45.7178C106.923 45.1751 107.205 44.5784 107.748 44.3844C109.639 43.7115 112.288 41.7702 115.207 38.9203C117.695 36.4903 119.789 33.9633 120.494 32.8189C120.797 32.329 121.439 32.1768 121.93 32.4788C122.42 32.7821 122.572 33.4243 122.27 33.9154C120.791 36.3123 113.534 44.5403 108.448 46.3514C108.333 46.392 108.215 46.4116 108.098 46.4116Z" fill="#FCE300"/>
<path d="M250.189 33.5093C257.632 33.5093 263.665 27.4756 263.665 20.0326C263.665 12.5896 257.632 6.55591 250.189 6.55591C242.746 6.55591 236.712 12.5896 236.712 20.0326C236.712 27.4756 242.746 33.5093 250.189 33.5093Z" fill="black"/>
<path d="M249.566 19.9377H247.956C247.956 21.0365 247.678 22.2748 247.151 23.1105C245.944 22.3986 244.969 21.3307 244.164 20.3402C245.913 19.8141 248.033 18.9163 248.033 16.6876C248.033 14.985 246.826 13.6694 244.721 13.6694C242.462 13.6694 241.27 15.248 241.27 16.9195C241.27 17.8173 241.517 18.7611 242.044 19.7827C240.775 20.4792 240.156 21.5471 240.156 22.7389C240.156 24.7663 242.044 26.051 244.319 26.051C245.371 26.051 246.439 25.6332 247.383 24.8284C248.575 25.5094 249.906 25.8499 251.253 25.8499V24.5035C250.463 24.4726 249.163 24.2405 248.451 23.7916C249.178 22.6619 249.534 21.2534 249.565 19.9379L249.566 19.9377ZM244.68 15.0161C245.791 15.0188 246.439 15.8685 246.439 16.6873C246.439 17.91 244.969 18.6373 243.452 19.21C243.05 18.4052 242.864 17.6932 242.864 16.9658C242.864 16.0245 243.48 15.0216 244.68 15.0158V15.0161ZM244.319 24.7046C242.973 24.7046 241.75 24.101 241.75 22.7391C241.75 22.1664 241.951 21.3927 242.74 20.8975C243.607 22.0892 244.768 23.188 246.099 24.0858C245.619 24.4726 245.062 24.7048 244.319 24.7048L244.319 24.7046Z" fill="#F3F4F4"/>
<path d="M255.597 13.6694C254.545 13.6694 253.477 14.0872 252.533 14.892C251.341 14.211 250.01 13.8705 248.664 13.8705V15.2169C249.453 15.2478 250.753 15.4799 251.465 15.9288C250.738 17.0585 250.382 18.467 250.351 19.7825H251.96C251.96 18.6837 252.239 17.4454 252.765 16.6096C253.973 17.3216 254.948 18.3895 255.752 19.3799C254.003 19.906 251.883 20.8038 251.883 23.0326C251.883 24.7349 253.09 26.0505 255.195 26.0505C257.455 26.0505 258.647 24.4719 258.647 22.8004C258.647 21.9026 258.399 20.9588 257.873 19.9372C259.142 19.2407 259.761 18.1728 259.761 16.981C259.761 14.9541 257.873 13.6694 255.597 13.6694ZM255.236 24.7043C254.125 24.7016 253.477 23.8519 253.477 23.0331C253.477 21.8104 254.947 21.0831 256.464 20.5104C256.866 21.3152 257.052 22.0272 257.052 22.7546C257.052 23.6959 256.436 24.6988 255.236 24.7046V24.7043ZM257.176 18.8232C256.309 17.6315 255.149 16.5327 253.818 15.6349C254.297 15.248 254.855 15.0158 255.597 15.0158C256.944 15.0158 258.167 15.6194 258.167 16.9813C258.167 17.554 257.965 18.3277 257.176 18.8229L257.176 18.8232Z" fill="#F3F4F4"/>
<rect width="523.731" height="38.1398" transform="translate(308 11.0568)" fill="#CB81FF"/>
<path d="M318.028 18.5029H321.309L327.476 34.9531L333.628 18.5029H336.91L328.765 39.831H326.158L318.028 18.5029ZM316.534 18.5029H319.654L320.196 32.7411V39.831H316.534V18.5029ZM335.284 18.5029H338.418V39.831H334.742V32.7411L335.284 18.5029ZM356.744 36.916V39.831H345.42V36.916H356.744ZM346.46 18.5029V39.831H342.784V18.5029H346.46ZM355.264 27.4091V30.2802H345.42V27.4091H355.264ZM356.67 18.5029V21.4326H345.42V18.5029H356.67ZM366.221 30.6025L358.326 18.5029H362.793L367.994 27.4238H371.831L371.319 30.6025H366.221ZM368.052 30.1337L362.456 39.831H357.886L365.313 27.6435L368.052 30.1337ZM373.955 18.5029V39.831H370.293V18.5029H373.955ZM385.777 18.5029L377.94 30.6025H372.915L372.403 27.4238H376.167L381.294 18.5029H385.777ZM381.631 39.831L376.123 30.1337L378.877 27.6435L386.202 39.831H381.631ZM402.124 18.5029V21.4326H392.222V39.831H388.56V18.5029H402.124ZM410.591 21.3447L404.219 39.831H400.367L408.394 18.5029H410.855L410.591 21.3447ZM415.923 39.831L409.536 21.3447L409.258 18.5029H411.734L419.79 39.831H415.923ZM415.616 31.9208V34.8359H404.014V31.9208H415.616ZM436.431 18.5029V21.4326H426.206V18.5029H436.431ZM439.244 18.5029V39.831H435.567V18.5029H439.244ZM425.474 18.5029H429.121L428.609 29.0937C428.54 30.6464 428.409 32.0136 428.213 33.1953C428.018 34.3769 427.754 35.3876 427.422 36.2275C427.09 37.0673 426.67 37.7558 426.162 38.2929C425.655 38.8203 425.044 39.2109 424.331 39.4648C423.628 39.7089 422.803 39.831 421.856 39.831H420.918V36.916L421.49 36.872C422.007 36.8329 422.452 36.7109 422.823 36.5058C423.203 36.291 423.526 35.9785 423.789 35.5683C424.053 35.1484 424.273 34.6064 424.449 33.9423C424.624 33.2783 424.761 32.4677 424.859 31.5107C424.966 30.5536 425.044 29.4355 425.093 28.1562L425.474 18.5029ZM452.222 21.3447L445.85 39.831H441.997L450.025 18.5029H452.486L452.222 21.3447ZM457.554 39.831L451.167 21.3447L450.889 18.5029H453.365L461.421 39.831H457.554ZM457.246 31.9208V34.8359H445.645V31.9208H457.246ZM467.544 18.5029V39.831H463.882V18.5029H467.544ZM480.376 18.5029L471.704 30.6611H466.504L466.006 27.4677H469.668L475.879 18.5029H480.376ZM476.626 39.831L469.727 30.1044L472.1 27.2773L481.036 39.831H476.626ZM491.919 18.5029V39.831H488.272V18.5029H491.919ZM498.614 18.5029V21.4326H481.636V18.5029H498.614ZM505.059 33.8398L514.522 18.5029H518.199V39.831H514.522V24.4794L505.059 39.831H501.397V18.5029H505.059V33.8398ZM522.154 18.5029H525.83V25.1093C525.83 26.1152 525.982 26.9062 526.285 27.4824C526.587 28.0488 527.046 28.4492 527.661 28.6835C528.286 28.9179 529.063 29.0351 529.991 29.0351C530.44 29.0351 530.913 29.0156 531.411 28.9765C531.91 28.9374 532.408 28.8837 532.906 28.8154C533.413 28.7372 533.902 28.6494 534.37 28.5517C534.839 28.4443 535.269 28.3271 535.66 28.2001V31.1152C535.279 31.2324 534.859 31.3447 534.4 31.4521C533.951 31.5595 533.482 31.6523 532.994 31.7304C532.505 31.7988 532.007 31.8525 531.499 31.8915C530.992 31.9306 530.489 31.9501 529.991 31.9501C528.379 31.9501 526.988 31.7206 525.816 31.2617C524.644 30.7929 523.741 30.0556 523.106 29.0497C522.471 28.0439 522.154 26.7304 522.154 25.1093V18.5029ZM534.825 18.5029H538.501V39.831H534.825V18.5029ZM556.87 36.916V39.831H545.547V36.916H556.87ZM546.587 18.5029V39.831H542.911V18.5029H546.587ZM555.391 27.4091V30.2802H545.547V27.4091H555.391ZM556.797 18.5029V21.4326H545.547V18.5029H556.797ZM572.471 32.8876H576.133C576.016 34.2841 575.625 35.5292 574.961 36.623C574.297 37.707 573.365 38.5615 572.163 39.1865C570.962 39.8115 569.502 40.124 567.784 40.124C566.465 40.124 565.279 39.8896 564.224 39.4208C563.169 38.9423 562.266 38.2685 561.514 37.3994C560.762 36.5204 560.186 35.4609 559.786 34.2206C559.395 32.9804 559.2 31.5937 559.2 30.0605V28.288C559.2 26.7548 559.4 25.3681 559.8 24.1279C560.21 22.8876 560.796 21.8281 561.558 20.9492C562.32 20.0605 563.233 19.3818 564.297 18.913C565.371 18.4443 566.578 18.2099 567.915 18.2099C569.615 18.2099 571.05 18.5224 572.222 19.1474C573.394 19.7724 574.302 20.6367 574.947 21.7402C575.601 22.8437 576.001 24.1083 576.148 25.5341H572.486C572.388 24.6161 572.173 23.83 571.841 23.1757C571.519 22.5214 571.04 22.0234 570.406 21.6816C569.771 21.33 568.941 21.1542 567.915 21.1542C567.076 21.1542 566.343 21.3105 565.718 21.623C565.093 21.9355 564.571 22.3945 564.151 22.9999C563.731 23.6054 563.413 24.3525 563.199 25.2411C562.994 26.1201 562.891 27.1259 562.891 28.2587V30.0605C562.891 31.1347 562.984 32.1113 563.169 32.9902C563.365 33.8593 563.658 34.6064 564.048 35.2314C564.449 35.8564 564.956 36.3398 565.572 36.6816C566.187 37.0234 566.924 37.1943 567.784 37.1943C568.828 37.1943 569.673 37.0283 570.318 36.6962C570.972 36.3642 571.465 35.8808 571.797 35.246C572.139 34.6015 572.364 33.8154 572.471 32.8876ZM583.208 18.5029V39.831H579.546V18.5029H583.208ZM596.04 18.5029L587.369 30.6611H582.168L581.67 27.4677H585.332L591.543 18.5029H596.04ZM592.29 39.831L585.391 30.1044L587.764 27.2773L596.7 39.831H592.29ZM607.115 21.3447L600.743 39.831H596.89L604.917 18.5029H607.378L607.115 21.3447ZM612.447 39.831L606.06 21.3447L605.782 18.5029H608.257L616.314 39.831H612.447ZM612.139 31.9208V34.8359H600.537V31.9208H612.139ZM630.259 31.8329H624.385L622.935 31.2324C621.324 30.7245 620.088 29.9531 619.229 28.9179C618.37 27.8828 617.94 26.579 617.94 25.0068C617.94 23.6005 618.252 22.414 618.877 21.4472C619.502 20.4804 620.391 19.748 621.543 19.2499C622.705 18.7519 624.078 18.5029 625.66 18.5029H632.823V39.831H629.131V21.4326H625.66C624.292 21.4326 623.277 21.7646 622.613 22.4286C621.949 23.0927 621.617 24.0107 621.617 25.1826C621.617 25.9833 621.763 26.6718 622.056 27.248C622.359 27.8144 622.803 28.2538 623.389 28.5663C623.985 28.8691 624.722 29.0204 625.601 29.0204H630.259V31.8329ZM625.777 30.1923L620.826 39.831H616.87L621.88 30.1923H625.777ZM652.876 21.3447L646.504 39.831H642.652L650.679 18.5029H653.14L652.876 21.3447ZM658.208 39.831L651.822 21.3447L651.543 18.5029H654.019L662.076 39.831H658.208ZM657.901 31.9208V34.8359H646.299V31.9208H657.901ZM678.555 27.4091V30.3242H667.232V27.4091H678.555ZM668.14 18.5029V39.831H664.463V18.5029H668.14ZM681.382 18.5029V39.831H677.72V18.5029H681.382ZM694.331 21.3447L687.959 39.831H684.107L692.134 18.5029H694.595L694.331 21.3447ZM699.663 39.831L693.277 21.3447L692.998 18.5029H695.474L703.531 39.831H699.663ZM699.356 31.9208V34.8359H687.754V31.9208H699.356ZM720.171 18.5029V21.4326H709.947V18.5029H720.171ZM722.984 18.5029V39.831H719.307V18.5029H722.984ZM709.214 18.5029H712.862L712.349 29.0937C712.281 30.6464 712.149 32.0136 711.953 33.1953C711.758 34.3769 711.495 35.3876 711.162 36.2275C710.83 37.0673 710.411 37.7558 709.903 38.2929C709.395 38.8203 708.785 39.2109 708.072 39.4648C707.369 39.7089 706.543 39.831 705.596 39.831H704.659V36.916L705.23 36.872C705.747 36.8329 706.192 36.7109 706.563 36.5058C706.944 36.291 707.266 35.9785 707.53 35.5683C707.793 35.1484 708.013 34.6064 708.189 33.9423C708.365 33.2783 708.501 32.4677 708.599 31.5107C708.706 30.5536 708.785 29.4355 708.833 28.1562L709.214 18.5029ZM731.026 33.8398L740.489 18.5029H744.165V39.831H740.489V24.4794L731.026 39.831H727.364V18.5029H731.026V33.8398ZM756.91 18.5029V39.831H753.262V18.5029H756.91ZM763.604 18.5029V21.4326H746.626V18.5029H763.604ZM770.049 33.8398L779.512 18.5029H783.189V39.831H779.512V24.4794L770.049 39.831H766.387V18.5029H770.049V33.8398ZM791.333 18.5029V39.831H787.671V18.5029H791.333ZM804.165 18.5029L795.494 30.6611H790.293L789.795 27.4677H793.457L799.668 18.5029H804.165ZM800.415 39.831L793.516 30.1044L795.889 27.2773L804.825 39.831H800.415ZM815.24 21.3447L808.868 39.831H805.015L813.042 18.5029H815.503L815.24 21.3447ZM820.572 39.831L814.185 21.3447L813.907 18.5029H816.382L824.439 39.831H820.572ZM820.264 31.9208V34.8359H808.662V31.9208H820.264Z" fill="#201B10"/>
</svg>
